<svg xmlns="http://www.w3.org/2000/svg" width="50" height="50" viewBox="0 0 50 50">
    <path fill="#299F88" fill-rule="evenodd" d="M25 13.462c1.062 0 1.923-.861 1.923-1.924 0-1.062-.861-1.923-1.923-1.923s-1.923.861-1.923 1.923c0 1.063.86 1.924 1.923 1.924zm-9.519 3.942c1.062 0 1.923-.86 1.923-1.923 0-1.062-.86-1.923-1.923-1.923-1.062 0-1.923.861-1.923 1.923s.861 1.923 1.923 1.923zm22.98 9.519c1.063 0 1.924-.861 1.924-1.923s-.861-1.923-1.924-1.923c-1.062 0-1.923.86-1.923 1.923 0 1.062.861 1.923 1.923 1.923zm-26.923 0c1.063 0 1.924-.861 1.924-1.923s-.861-1.923-1.924-1.923c-1.062 0-1.923.86-1.923 1.923 0 1.062.861 1.923 1.923 1.923zm3.943 9.519c1.062 0 1.923-.861 1.923-1.923s-.86-1.923-1.923-1.923c-1.062 0-1.923.86-1.923 1.923 0 1.062.861 1.923 1.923 1.923zm19.038 0c1.062 0 1.923-.861 1.923-1.923s-.861-1.923-1.923-1.923-1.923.86-1.923 1.923c0 1.062.86 1.923 1.923 1.923zM25 40.385c1.062 0 1.923-.861 1.923-1.924 0-1.062-.861-1.923-1.923-1.923s-1.923.861-1.923 1.923c0 1.063.86 1.924 1.923 1.924z"/>
</svg>
